:FULLY-SPECIFIED
:FORCE-ALL-JOINTS-BE-3DOF
:DEGREES
476
root 4.62061 16.2945 -6.62129 0.229866 54.9725 -6.64401
lfemur -28.1374 -11.5629 -16.6995
ltibia 49.0502 -0 0
lfoot -25.026 -4.19021 -0.217033
ltoes 9.20597 -0 0
rfemur -52.4111 6.33449 6.81045
rtibia 65.1679 -0 0
rfoot 7.89544 9.14736 -0.0227587
rtoes -15.8993 0 0
lowerback 6.37488 0.51674 -0.0490769
upperback 0.857268 0.699291 0.683084
thorax -2.60965 0.360524 0.69614
lowerneck -8.62473 -5.66881 1.3854
upperneck 7.94448 -7.79961 0.515758
head 4.05324 -3.79406 -0.715663
lclavicle -1.64643e-14 1.52081e-15 2.44375e-31
lhumerus -46.7808 -30.5246 110.092
lradius 53.9917 -0 0
lwrist 6.30471 0 0
lhand -0.345143 0.0335068 0.0767709
lfingers 7.12502 -0 0
lthumb 25.2079 27.791 -0.0881841
rclavicle -1.64643e-14 1.52081e-15 2.44375e-31
rhumerus -42.0053 29.7372 -93.6488
rradius 85.8741 -0 0
rwrist 21.3435 0 0
rhand -7.79752 -16.4283 0.228239
rfingers 7.12502 -0 0
rthumb 18.0754 -45.1601 0.315124
477
root 4.65991 16.3045 -6.57907 0.155455 56.8229 -6.68553
lfemur -28.0178 -11.9665 -16.9963
ltibia 48.919 -0 0
lfoot -24.9988 -4.3589 -0.202816
ltoes 9.6047 -0 0
rfemur -52.7555 6.34383 6.91973
rtibia 65.5484 -0 0
rfoot 7.90616 9.27927 -0.0205259
rtoes -15.8975 0 0
lowerback 6.35179 0.466107 -0.122561
upperback 0.831262 0.628704 0.719465
thorax -2.62679 0.326293 0.779635
lowerneck -8.6559 -5.8991 1.19841
upperneck 8.00735 -8.09473 0.590177
head 4.07483 -3.93969 -0.675441
lclavicle -1.62581e-14 1.38337e-15 2.37371e-31
lhumerus -46.884 -30.6902 110.433
lradius 54.1179 -0 0
lwrist 6.19374 0 0
lhand 0.137661 0.0775824 0.0754791
lfingers 7.12502 -0 0
lthumb 25.6716 27.7856 -0.0838574
rclavicle -1.62581e-14 1.38337e-15 2.37371e-31
rhumerus -41.8717 30.3167 -93.7324
rradius 86.2516 -0 0
rwrist 21.5095 0 0
rhand -7.35078 -16.3438 0.223714
rfingers 7.12502 -0 0
rthumb 18.5059 -45.0477 0.307331
478
root 4.69873 16.3143 -6.53754 0.0757284 58.6488 -6.73306
lfemur -27.8973 -12.3639 -17.2904
ltibia 48.7897 -0 0
lfoot -24.9717 -4.52505 -0.188597
ltoes 9.99812 -0 0
rfemur -53.0952 6.35345 7.02769
rtibia 65.9234 -0 0
rfoot 7.9165 9.4092 -0.0183192
rtoes -15.8955 0 0
lowerback 6.32904 0.416097 -0.195062
upperback 0.805582 0.559044 0.755428
thorax -2.64371 0.292527 0.862074
lowerneck -8.68593 -6.12653 1.01385
upperneck 8.06904 -8.38612 0.66343
head 4.09603 -4.08346 -0.635764
lclavicle -1.60521e-14 1.24865e-15 2.29917e-31
lhumerus -46.9871 -30.8531 110.77
lradius 54.2424 -0 0
lwrist 6.0844 0 0
lhand 0.614176 0.121177 0.0738382
lfingers 7.12502 -0 0
lthumb 26.1292 27.7805 -0.0795451
rclavicle -1.60521e-14 1.24865e-15 2.29917e-31
rhumerus -41.7397 30.889 -93.8136
rradius 86.6247 -0 0
rwrist 21.6728 0 0
rhand -6.91007 -16.2604 0.218699
rfingers 7.12502 -0 0
rthumb 18.9306 -44.937 0.298911
479
root 4.73704 16.324 -6.49669 -0.0102372 60.4482 -6.78754
lfemur -27.776 -12.7548 -17.5814
ltibia 48.6624 -0 0
lfoot -24.9447 -4.68864 -0.174429
ltoes 10.3858 -0 0
rfemur -53.43 6.36342 7.13411
rtibia 66.2927 -0 0
rfoot 7.92653 9.53706 -0.0161493
rtoes -15.8935 0 0
lowerback 6.3067 0.366774 -0.266498
upperback 0.780256 0.490398 0.790932
thorax -2.66042 0.259269 0.943365
lowerneck -8.71481 -6.35083 0.831935
upperneck 8.12953 -8.67347 0.735429
head 4.11684 -4.22521 -0.596682
lclavicle -1.58463e-14 1.11676e-15 2.22031e-31
lhumerus -47.09 -31.0132 111.104
lradius 54.3652 -0 0
lwrist 5.97677 0 0
lhand 1.08386 0.164197 0.0718643
lfingers 7.12502 -0 0
lthumb 26.5804 27.7755 -0.0752555
rclavicle -1.58463e-14 1.11676e-15 2.22031e-31
rhumerus -41.6093 31.4536 -93.8924
rradius 86.9929 -0 0
rwrist 21.8331 0 0
rhand -6.4757 -16.1783 0.213198
rfingers 7.12502 -0 0
rthumb 19.3492 -44.8278 0.289881
480
root 4.77476 16.3335 -6.45652 -0.103549 62.2195 -6.85006
lfemur -27.6544 -13.139 -17.8691
ltibia 48.5371 -0 0
lfoot -24.918 -4.84958 -0.160372
ltoes 10.7672 -0 0
rfemur -53.7594 6.3738 7.23878
rtibia 66.6559 -0 0
rfoot 7.9363 9.66276 -0.0140269
rtoes -15.8915 0 0
lowerback 6.28482 0.318202 -0.336786
upperback 0.755309 0.422853 0.825935
thorax -2.67692 0.226561 1.02341
lowerneck -8.74255 -6.57174 0.652866
upperneck 8.18881 -8.95644 0.806084
head 4.13726 -4.36477 -0.558247
lclavicle -1.56408e-14 9.87806e-16 2.13732e-31
lhumerus -47.1924 -31.1704 111.433
lradius 54.4861 -0 0
lwrist 5.87091 0 0
lhand 1.54618 0.206549 0.069576
lfingers 7.12502 -0 0
lthumb 27.0244 27.7707 -0.0709963
rclavicle -1.56408e-14 9.87806e-16 2.13732e-31
rhumerus -41.4807 32.0097 -93.9686
rradius 87.3558 -0 0
rwrist 21.9904 0 0
rhand -6.04799 -16.0974 0.207217
rfingers 7.12502 -0 0
rthumb 19.7613 -44.7203 0.280259
